<?xml version="1.0" standalone="no"?>
<!DOCTYPE svg PUBLIC "-//W3C//DTD SVG 20010904//EN"
 "http://www.w3.org/TR/2001/REC-SVG-20010904/DTD/svg10.dtd">
<svg version="1.0" xmlns="http://www.w3.org/2000/svg"
 width="4800.000000pt" height="4800.000000pt" viewBox="0 0 4800.000000 4800.000000"
 preserveAspectRatio="xMidYMid meet">
<metadata>
Created by potrace 1.11, written by Peter Selinger 2001-2013
</metadata>
<g fill="#38436b" transform="translate(0.000000,4800.000000) scale(0.100000,-0.100000)" stroke="none">
<path d="M41786 28503 c-2 -2 -100 -6 -217 -8 -118 -3 -266 -7 -329 -10 -63
-3 -158 -8 -210 -10 -52 -2 -138 -7 -190 -10 -246 -14 -281 -17 -445 -31 -38
-3 -92 -7 -120 -9 -27 -2 -75 -7 -105 -10 -30 -4 -73 -8 -95 -10 -22 -1 -40
-4 -40 -5 0 -1 -20 -3 -45 -5 -42 -3 -101 -10 -175 -20 -56 -8 -160 -24 -195
-31 -14 -3 -34 -6 -45 -8 -20 -3 -57 -11 -105 -22 -14 -4 -34 -7 -45 -9 -11
-1 -27 -5 -35 -8 -8 -3 -49 -15 -90 -27 -75 -21 -118 -35 -155 -50 -11 -5 -45
-17 -75 -28 -30 -11 -85 -34 -123 -51 -37 -17 -69 -31 -72 -31 -10 -1 -180
-94 -185 -101 -3 -4 -18 -11 -33 -14 -15 -4 -27 -10 -27 -15 0 -4 -16 -15 -35
-26 -19 -10 -35 -22 -35 -26 0 -5 -6 -8 -14 -8 -7 0 -29 -12 -49 -27 -20 -16
-52 -39 -72 -53 -20 -14 -42 -30 -48 -35 -7 -6 -37 -30 -67 -55 -236 -193
-479 -472 -606 -695 -6 -11 -21 -38 -34 -60 -74 -129 -159 -319 -205 -460 -9
-27 -19 -57 -22 -65 -3 -8 -6 -18 -5 -22 1 -4 -5 -26 -13 -49 -8 -23 -15 -52
-15 -66 0 -15 -4 -22 -11 -17 -8 5 -9 2 -1 -11 6 -12 6 -30 0 -52 -9 -34 -14
-64 -24 -163 -3 -30 -7 -66 -10 -80 -3 -14 -7 -43 -9 -65 -4 -43 -10 -109 -21
-220 -3 -38 -8 -86 -9 -105 -2 -19 -5 -70 -9 -112 -12 -150 -21 -309 -32 -533
-24 -514 -24 -1825 1 -1865 6 -9 4 -11 -5 -5 -8 5 -11 4 -7 -2 3 -5 9 -70 12
-144 12 -265 22 -431 30 -514 3 -27 7 -79 10 -115 3 -36 8 -90 11 -120 3 -30
7 -75 9 -100 3 -25 7 -65 11 -90 3 -25 7 -63 10 -85 2 -22 9 -65 14 -95 5 -30
12 -71 14 -90 3 -19 12 -71 21 -115 10 -44 18 -84 19 -90 1 -5 5 -16 9 -22 5
-7 6 -13 3 -13 -3 0 3 -24 14 -54 10 -30 16 -57 13 -60 -4 -3 0 -6 7 -6 7 0
11 -3 8 -6 -5 -4 29 -100 65 -184 6 -14 11 -27 11 -30 3 -11 111 -225 116
-230 4 -3 30 -44 59 -92 29 -49 56 -88 61 -88 4 0 11 -11 14 -25 4 -14 11 -25
16 -25 5 0 16 -12 24 -27 8 -16 24 -39 36 -53 12 -14 41 -47 64 -74 56 -66
188 -198 270 -270 101 -89 334 -256 357 -256 5 0 9 -3 9 -7 0 -5 10 -13 23
-19 12 -6 69 -35 127 -65 99 -52 243 -119 254 -119 3 0 17 -5 33 -12 15 -6 37
-13 48 -15 10 -2 22 -7 25 -11 3 -4 10 -7 15 -7 6 0 39 -10 75 -22 36 -13 74
-24 85 -26 11 -2 27 -7 35 -11 13 -5 112 -28 180 -42 14 -2 48 -9 76 -15 60
-12 77 -15 169 -30 39 -6 81 -13 95 -15 14 -2 43 -6 65 -9 22 -2 56 -6 75 -9
19 -2 66 -7 103 -11 37 -3 76 -8 86 -10 10 -2 56 -6 102 -10 46 -3 107 -8 134
-10 28 -3 84 -7 125 -10 285 -19 322 -21 535 -30 279 -11 425 -15 825 -20 228
-3 417 -5 420 -6 3 -1 10 0 15 1 12 3 86 2 100 0 6 -1 14 -2 20 0 5 1 140 2
300 4 160 1 295 5 301 9 6 3 14 4 17 0 5 -5 90 -8 100 -3 1 0 81 3 177 5 96 3
229 7 295 10 66 3 170 8 230 10 107 4 180 8 375 21 52 3 127 7 165 9 39 3 93
7 122 10 28 3 87 7 130 10 43 2 78 4 78 5 0 1 23 3 50 6 28 2 70 6 95 9 25 2
70 7 100 9 30 3 75 7 100 10 51 5 200 25 245 32 17 3 46 7 65 9 53 6 103 14
123 21 10 3 35 8 55 11 84 11 87 11 227 50 50 14 99 26 110 27 11 1 30 8 42
14 12 7 30 13 40 15 10 2 27 8 38 12 113 45 140 55 152 55 7 0 13 5 13 12 0 6
2 9 6 6 3 -3 32 7 65 23 32 16 61 29 63 29 2 0 52 27 111 60 59 33 111 60 116
60 5 0 9 5 9 11 0 5 14 15 30 20 17 6 30 14 30 18 0 4 11 13 25 19 14 7 31 17
38 22 7 6 48 38 93 73 161 124 295 253 399 382 17 21 35 43 40 49 31 33 175
242 175 252 0 3 9 19 21 35 33 46 113 204 162 319 69 163 121 335 143 475 11
66 13 79 18 105 3 14 8 50 11 80 4 30 9 75 12 100 4 25 7 57 7 73 1 15 3 27 6
27 3 0 5 17 6 38 0 20 4 73 8 117 21 221 28 332 41 590 12 239 16 380 19 611
2 133 7 247 10 253 4 6 4 11 -1 11 -4 0 -8 11 -8 25 0 14 4 25 8 25 4 0 4 8
-2 17 -5 10 -5 26 0 40 5 13 4 25 -1 28 -7 4 -6 13 0 26 8 13 7 19 0 19 -7 0
-8 6 0 19 7 13 7 22 0 26 -6 4 -7 13 -1 23 6 11 5 24 -1 36 -8 14 -7 17 1 12
8 -5 8 0 1 18 -6 17 -6 27 1 32 5 3 6 11 2 17 -5 7 -7 35 -6 62 2 28 3 55 3
60 -2 165 -17 663 -25 810 -2 44 -7 128 -10 188 -3 59 -8 131 -10 160 -2 28
-7 88 -10 132 -3 44 -8 106 -11 137 -3 32 -7 81 -9 110 -3 29 -7 73 -9 98 -3
25 -8 72 -11 105 -3 33 -8 74 -10 90 -3 17 -7 50 -10 75 -13 117 -34 236 -56
314 -11 39 -22 78 -24 86 -7 29 -38 115 -50 140 -7 14 -15 39 -19 55 -4 17
-15 38 -23 48 -9 9 -13 17 -9 17 5 0 -1 16 -13 36 -12 19 -21 39 -21 44 0 13
-127 238 -156 275 -13 17 -24 35 -24 39 0 6 -77 114 -90 126 -3 3 -17 21 -30
40 -14 19 -39 51 -56 70 -18 19 -42 46 -54 60 -50 59 -181 187 -252 248 -43
36 -78 69 -78 74 0 4 -3 7 -8 5 -4 -1 -34 19 -67 44 -50 38 -187 131 -260 176
-106 65 -368 186 -505 232 -36 13 -72 25 -80 28 -8 3 -24 8 -35 10 -11 2 -27
6 -35 10 -16 7 -22 8 -60 17 -14 3 -43 10 -65 16 -63 16 -262 50 -334 56 -66
7 -96 11 -96 14 0 1 -22 3 -50 5 -27 2 -70 6 -95 8 -25 3 -79 8 -120 12 -41 3
-95 8 -120 10 -25 3 -85 7 -135 10 -49 3 -117 8 -150 10 -267 18 -716 37 -942
39 -73 0 -133 5 -133 9 0 4 -7 4 -15 -1 -9 -4 -41 -5 -73 -2 -59 7 -1599 9
-1606 3z m218 -2266 c10 10 76 10 76 0 0 -5 6 -5 13 0 15 13 1475 14 1499 2
10 -6 19 -5 23 1 4 7 12 7 25 0 13 -7 21 -7 25 0 4 6 12 7 18 3 6 -4 66 -8
132 -10 186 -4 281 -9 293 -17 6 -3 13 -2 17 4 4 6 11 8 17 4 5 -3 33 -8 61
-10 142 -10 281 -32 345 -54 31 -11 64 -22 72 -24 63 -16 190 -114 255 -198
57 -73 114 -245 150 -453 2 -11 6 -36 10 -55 3 -19 8 -46 10 -60 16 -112 21
-152 31 -250 3 -36 8 -78 9 -95 2 -16 6 -77 10 -135 3 -58 8 -145 11 -195 3
-49 7 -176 9 -282 1 -105 5 -195 8 -200 2 -4 1 -17 -3 -28 -4 -11 -4 -30 1
-42 5 -13 4 -25 -2 -28 -5 -4 -6 -11 -2 -18 9 -15 10 -57 1 -57 -4 0 -3 -11 2
-24 5 -13 6 -26 3 -29 -3 -3 -6 -99 -8 -214 -2 -114 -6 -244 -9 -288 -3 -44
-8 -123 -11 -175 -3 -52 -8 -120 -11 -150 -3 -30 -7 -71 -9 -90 -2 -19 -6 -57
-9 -85 -4 -27 -9 -70 -12 -95 -10 -81 -12 -95 -14 -95 -1 0 -4 -16 -6 -35 -3
-32 -10 -68 -14 -80 -1 -3 -2 -8 -2 -11 0 -3 -4 -23 -9 -45 -5 -21 -12 -50
-15 -64 -2 -14 -12 -50 -21 -80 -9 -30 -17 -57 -18 -60 0 -3 -6 -15 -13 -26
-6 -12 -8 -24 -5 -28 3 -3 1 -6 -5 -6 -7 0 -12 -7 -12 -15 0 -8 -3 -15 -8 -15
-4 0 -13 -13 -20 -28 -7 -16 -37 -53 -68 -83 -78 -76 -82 -79 -90 -79 -4 0
-17 -8 -28 -19 -12 -10 -52 -36 -91 -56 -38 -21 -75 -42 -81 -47 -31 -23 -175
-61 -324 -83 -20 -3 -47 -8 -60 -10 -14 -3 -47 -7 -75 -10 -27 -3 -70 -7 -95
-10 -117 -14 -189 -20 -232 -20 -27 0 -48 -2 -48 -5 0 -3 -15 -6 -32 -6 -39
-2 -227 -12 -353 -20 -49 -3 -142 -7 -205 -9 -63 -2 -115 -5 -115 -5 0 -5
-402 -9 -845 -10 -491 -1 -837 5 -990 15 -36 2 -108 7 -160 9 -52 3 -95 6 -95
6 0 1 -27 3 -60 6 -55 4 -100 10 -100 14 0 1 -17 3 -38 6 -47 6 -164 46 -237
82 -31 15 -86 58 -127 98 -74 73 -105 126 -145 248 -21 62 -22 69 -32 127 -3
19 -8 45 -10 59 -7 35 -26 177 -31 231 -2 24 -7 64 -10 89 -3 25 -7 83 -10
130 -3 47 -8 112 -11 145 -2 33 -7 121 -10 195 -3 74 -6 151 -8 170 -1 19 1
45 5 57 5 12 4 25 0 28 -13 7 -12 987 1 1002 5 6 5 14 0 17 -4 2 -7 20 -5 38
1 18 5 94 8 168 2 74 7 167 9 205 3 39 8 108 11 155 3 47 8 105 11 130 3 25 8
68 10 95 7 67 12 110 14 110 1 0 3 16 4 35 5 50 15 99 31 150 8 25 14 47 14
50 -3 10 76 156 93 171 10 9 18 21 18 26 0 12 81 89 143 136 57 42 195 111
247 123 19 4 37 8 40 9 3 1 30 5 60 9 30 4 66 9 80 11 30 5 169 15 435 30 75
4 383 16 528 19 70 2 131 6 134 10 3 3 11 1 18 -4 7 -5 15 -7 19 -3z"/>
<path d="M26637 28484 c-3 -3 -108 -7 -234 -9 -125 -3 -327 -7 -448 -10 -212
-5 -278 -7 -575 -21 -74 -3 -178 -7 -230 -9 -117 -5 -247 -12 -365 -20 -49 -4
-112 -8 -140 -10 -27 -2 -50 -4 -50 -5 0 -1 -26 -3 -58 -5 -32 -2 -82 -6 -110
-9 -29 -3 -79 -8 -112 -11 -33 -3 -71 -8 -85 -10 -46 -7 -145 -19 -167 -19
-13 -1 -23 -4 -23 -9 0 -4 -3 -6 -7 -5 -5 1 -21 -1 -38 -5 -16 -4 -39 -9 -50
-12 -11 -2 -36 -9 -55 -14 -19 -6 -56 -16 -82 -23 -26 -8 -50 -17 -54 -21 -4
-4 -14 -7 -23 -7 -9 0 -43 -12 -76 -26 -33 -14 -67 -27 -75 -28 -36 -9 -303
-145 -308 -158 -2 -4 -8 -8 -12 -8 -18 0 -177 -116 -274 -200 -54 -47 -154
-155 -200 -215 -25 -33 -49 -65 -54 -71 -5 -5 -22 -30 -38 -55 -16 -24 -32
-46 -35 -49 -7 -5 -33 -52 -34 -60 0 -3 -12 -25 -27 -50 -50 -85 -135 -280
-153 -350 -1 -3 -4 -12 -8 -20 -14 -36 -39 -116 -40 -132 -1 -10 -5 -18 -10
-18 -4 0 -6 -4 -3 -8 3 -5 -1 -33 -9 -63 -9 -30 -17 -65 -20 -79 -3 -14 -7
-36 -10 -50 -3 -14 -7 -36 -10 -50 -3 -14 -7 -36 -10 -50 -8 -40 -22 -146 -30
-225 -14 -144 -17 -178 -21 -245 -5 -101 -5 -417 0 -510 9 -165 31 -374 42
-391 1 -3 6 -28 9 -55 10 -82 63 -292 101 -398 20 -56 38 -111 41 -123 3 -13
10 -23 15 -23 5 0 7 -4 3 -9 -3 -5 -1 -12 5 -16 6 -4 8 -11 5 -16 -4 -5 -1 -9
4 -9 6 0 11 -5 11 -12 0 -15 73 -161 85 -170 5 -4 6 -8 2 -8 -4 0 -3 -6 3 -12
6 -7 29 -42 53 -78 48 -73 87 -129 102 -146 6 -6 27 -32 48 -57 71 -86 189
-197 297 -280 57 -44 89 -67 95 -67 3 0 19 -9 35 -20 17 -11 43 -29 59 -40 53
-35 292 -152 341 -166 14 -3 43 -14 65 -24 42 -18 178 -63 230 -76 17 -4 35
-9 40 -10 89 -29 253 -57 400 -69 39 -3 90 -8 115 -11 25 -3 81 -8 125 -10 44
-2 105 -6 135 -9 88 -7 228 -16 320 -20 47 -2 85 -4 85 -5 0 -1 70 -5 300 -14
166 -7 334 -17 359 -22 21 -4 131 -12 251 -19 33 -2 112 -6 175 -10 63 -5 150
-8 192 -9 43 -1 78 -3 78 -6 0 -3 35 -6 78 -6 42 -1 124 -4 182 -8 58 -4 155
-9 215 -12 61 -3 139 -7 175 -9 36 -2 117 -6 180 -9 63 -3 149 -8 190 -11 85
-6 255 -15 380 -20 47 -2 85 -5 85 -6 0 0 34 -3 75 -4 88 -4 208 -12 340 -21
52 -4 116 -7 143 -8 26 0 47 -3 47 -6 0 -3 21 -5 48 -6 127 -2 273 -46 386
-117 67 -41 186 -167 186 -195 0 -5 7 -15 15 -22 9 -7 13 -15 10 -18 -3 -3 -1
-10 4 -16 14 -17 47 -120 56 -171 2 -11 6 -36 10 -55 10 -49 13 -284 4 -339
-22 -136 -28 -159 -65 -236 -19 -41 -53 -90 -81 -118 -52 -53 -159 -121 -174
-112 -5 4 -9 2 -9 -3 0 -5 -15 -13 -32 -17 -36 -8 -45 -11 -53 -15 -8 -4 -17
-6 -79 -14 -32 -4 -68 -9 -80 -11 -95 -16 -123 -19 -266 -30 -96 -7 -194 -14
-316 -20 -59 -3 -111 -8 -115 -11 -4 -2 -10 0 -13 5 -5 7 -41 8 -41 1 0 -1
-50 -3 -111 -5 -61 -1 -116 -5 -123 -9 -6 -4 -11 -2 -11 4 0 8 -6 8 -20 0 -14
-8 -20 -8 -20 0 0 7 -7 8 -17 2 -19 -8 -741 -7 -978 3 -77 3 -149 5 -160 4
-11 0 -24 0 -30 -1 -20 0 -335 17 -480 28 -138 9 -161 12 -295 29 -19 3 -56 7
-81 10 -25 3 -56 8 -70 11 -13 2 -42 7 -64 10 -22 2 -47 7 -55 10 -8 3 -26 8
-40 11 -46 8 -135 41 -186 67 -102 54 -197 171 -248 307 -31 82 -37 113 -45
229 l-6 95 -1358 0 c-826 0 -1361 -4 -1365 -9 -5 -10 -4 -107 3 -149 2 -12 6
-44 10 -71 3 -28 13 -82 21 -120 8 -39 17 -96 20 -126 3 -30 7 -75 9 -100 2
-25 7 -56 10 -70 4 -14 8 -44 11 -68 2 -24 6 -53 9 -65 2 -12 14 -65 25 -117
27 -120 36 -157 48 -198 6 -18 11 -33 11 -35 0 -1 2 -9 5 -17 50 -154 70 -209
105 -284 22 -49 41 -93 41 -97 0 -5 8 -18 18 -29 9 -11 17 -24 17 -28 1 -8 17
-35 74 -122 20 -30 38 -59 40 -65 2 -5 8 -14 13 -20 4 -5 29 -37 55 -69 74
-91 180 -195 273 -269 47 -37 90 -72 97 -77 7 -6 15 -10 18 -10 4 0 21 -11 39
-25 18 -14 38 -25 44 -25 7 0 12 -4 12 -8 0 -4 15 -15 33 -23 17 -9 62 -32
100 -51 37 -20 67 -34 67 -31 0 3 6 1 13 -4 18 -15 212 -88 297 -113 41 -12
82 -24 90 -27 8 -3 26 -8 40 -10 14 -2 57 -13 95 -23 78 -21 109 -27 175 -36
25 -3 56 -8 70 -10 14 -3 41 -7 60 -9 19 -2 49 -6 65 -9 17 -4 58 -9 91 -11
34 -3 70 -7 80 -9 45 -9 426 -39 634 -51 41 -2 118 -6 170 -9 117 -7 308 -16
416 -20 44 -2 86 -6 92 -10 6 -3 13 -2 17 4 4 6 10 8 15 5 9 -6 91 -9 595 -21
388 -9 1328 -9 1700 0 165 5 348 9 407 9 60 1 108 4 108 7 0 3 42 5 93 6 89 1
252 8 447 20 52 3 114 6 138 7 23 1 42 4 42 7 0 3 26 5 58 6 63 1 213 14 342
29 19 3 58 7 85 9 28 3 64 8 80 10 17 3 53 8 80 12 28 3 59 8 70 11 34 7 58
11 100 18 22 3 47 7 55 10 8 2 26 6 40 9 14 3 50 12 80 21 30 9 60 17 65 19
81 23 133 41 144 50 8 6 15 10 15 8 1 -2 14 1 29 7 16 6 31 11 33 11 12 0 203
97 254 129 111 69 190 124 190 132 0 5 6 9 14 9 17 0 276 250 276 267 0 6 4
13 10 15 5 2 34 37 64 78 31 41 60 80 66 87 5 7 10 15 10 19 0 3 8 18 19 32
39 56 141 252 141 272 0 6 5 10 11 10 5 0 7 5 4 10 -3 6 -1 10 6 10 7 0 10 3
7 6 -3 3 10 44 29 92 19 48 36 94 38 102 2 8 10 35 18 60 13 38 23 73 43 145
2 6 5 19 7 30 3 11 10 40 17 64 6 25 13 54 14 65 2 12 6 32 10 46 6 27 13 65
21 118 3 17 8 49 11 70 3 20 7 53 9 72 2 19 6 58 10 85 11 102 23 292 26 420
1 41 -11 371 -16 415 -3 30 -7 82 -10 115 -3 33 -8 71 -10 85 -3 14 -7 41 -9
60 -11 83 -37 213 -66 320 -17 63 -33 122 -35 130 -2 8 -4 16 -5 18 -2 1 -4 7
-5 12 -1 6 -3 11 -5 13 -1 1 -3 9 -5 17 -7 28 -36 102 -51 131 -8 16 -12 29
-10 29 8 0 -123 250 -144 278 -11 14 -20 29 -20 33 0 8 -20 36 -47 64 -7 8
-13 18 -13 22 0 5 -8 18 -17 29 -10 10 -38 44 -63 74 -50 61 -167 178 -225
225 -20 17 -44 37 -53 46 -21 20 -183 129 -237 159 -142 81 -389 190 -428 190
-9 0 -19 5 -22 11 -4 6 -13 8 -21 5 -8 -3 -14 -1 -14 3 0 8 -82 32 -155 46
-11 2 -31 6 -45 9 -23 6 -155 27 -240 40 -32 4 -80 10 -195 22 -22 2 -67 6
-100 9 -33 2 -91 7 -130 10 -126 11 -351 20 -760 30 -155 3 -402 12 -585 21
-58 2 -177 7 -265 10 -88 3 -203 7 -255 9 -52 2 -151 6 -220 9 -69 3 -192 8
-275 12 -82 4 -163 7 -180 7 -16 0 -33 5 -37 11 -5 7 -8 7 -8 1 0 -6 -18 -9
-42 -8 -24 2 -83 5 -133 7 -84 4 -136 7 -370 21 -176 10 -362 22 -465 30 -100
8 -249 18 -282 18 -21 1 -38 5 -38 8 0 4 -13 4 -30 -1 -16 -5 -30 -5 -30 -1 0
4 -24 9 -52 10 -29 1 -66 4 -83 7 -16 2 -50 6 -75 9 -206 23 -307 59 -403 145
-65 58 -128 170 -142 255 -2 11 -7 38 -11 60 -18 97 -5 500 16 500 1 0 3 10 6
23 6 35 56 125 90 164 62 70 182 141 284 168 25 7 49 15 54 18 10 6 59 13 94
14 12 0 22 3 22 7 0 4 12 7 28 7 15 1 52 4 82 7 85 10 177 17 265 22 44 2 127
6 185 10 58 3 173 8 255 10 83 3 162 6 178 8 15 3 27 0 27 -5 0 -5 6 -6 13 -1
18 12 1199 13 1215 1 6 -6 12 -7 12 -2 0 5 21 8 48 7 26 -1 117 -5 202 -7 226
-8 414 -22 545 -41 114 -16 256 -88 339 -171 36 -35 68 -74 72 -87 3 -12 12
-29 19 -37 15 -19 43 -121 50 -185 2 -16 4 -87 4 -157 l1 -128 1366 0 1366 0
-7 93 c-3 50 -8 103 -10 117 -2 14 -7 48 -10 75 -4 28 -10 62 -15 78 -6 17 -5
27 1 27 6 0 7 5 3 11 -4 7 -8 37 -10 68 -2 31 -6 66 -9 79 -7 28 -18 110 -18
140 -1 12 -4 22 -9 22 -4 0 -5 7 -2 15 4 8 3 23 -1 33 -4 9 -9 26 -10 37 -3
26 -11 66 -30 140 -9 33 -18 71 -21 85 -9 37 -10 43 -16 60 -3 8 -15 44 -26
80 -11 36 -29 88 -40 117 -11 28 -17 54 -14 57 3 3 0 6 -6 6 -7 0 -12 5 -12
11 0 16 -87 202 -125 267 -57 97 -71 119 -82 130 -7 7 -13 17 -13 22 0 5 -6
15 -12 22 -7 7 -35 42 -63 78 -27 36 -57 72 -65 81 -8 8 -36 38 -61 65 -25 27
-68 68 -95 92 -27 24 -58 51 -69 61 -25 22 -134 103 -157 116 -9 6 -48 29 -87
53 -38 23 -74 42 -80 42 -6 0 -11 5 -11 10 0 6 -4 10 -9 10 -5 0 -47 17 -93
38 -45 22 -101 46 -123 54 -69 28 -110 43 -115 44 -3 0 -37 10 -75 22 -39 12
-79 23 -90 25 -11 2 -40 9 -65 16 -54 16 -73 20 -124 26 -21 3 -41 7 -45 9 -3
2 -28 7 -56 11 -27 4 -59 9 -70 10 -20 3 -81 10 -180 21 -46 5 -73 8 -205 19
-25 3 -67 6 -95 9 -27 3 -95 8 -150 12 -55 3 -120 8 -145 10 -25 1 -101 5
-170 8 -69 3 -165 8 -215 11 -157 7 -480 16 -783 20 -162 2 -296 6 -299 8 -2
3 -18 1 -34 -3 -16 -5 -29 -6 -29 -2 0 6 -65 7 -80 2 -3 -2 -9 -2 -15 0 -27 5
-105 4 -105 -1 0 -4 -16 -3 -35 1 -19 4 -35 5 -35 1 0 -5 -68 -6 -95 -1 -6 2
-14 2 -20 1 -26 -5 -305 -2 -313 3 -5 3 -12 3 -15 0z"/>
<path d="M4968 28455 c-2 -2 -116 -6 -253 -9 -138 -4 -324 -9 -415 -12 -91 -4
-200 -7 -242 -8 -43 0 -78 -3 -78 -6 0 -3 -46 -6 -103 -7 -56 -1 -145 -4 -197
-7 -52 -3 -138 -8 -190 -11 -90 -5 -163 -10 -290 -20 -30 -2 -86 -7 -125 -10
-85 -7 -168 -14 -215 -20 -19 -2 -62 -7 -95 -11 -33 -3 -73 -8 -90 -10 -74
-10 -132 -17 -152 -18 -13 -1 -23 -4 -23 -8 0 -3 -7 -5 -16 -4 -13 2 -200 -40
-259 -58 -5 -2 -25 -7 -43 -11 -18 -4 -35 -11 -38 -16 -2 -4 -11 -6 -18 -3 -8
3 -17 1 -21 -5 -3 -6 -13 -11 -21 -11 -14 0 -107 -34 -179 -66 -16 -7 -55 -23
-85 -36 -54 -23 -205 -101 -265 -136 -79 -47 -195 -123 -219 -144 -11 -10 -24
-18 -29 -18 -4 0 -14 -6 -21 -12 -7 -7 -35 -31 -62 -53 -107 -89 -194 -167
-194 -176 0 -5 -4 -9 -10 -9 -9 0 -27 -18 -124 -124 -24 -26 -140 -169 -206
-255 -11 -13 -17 -28 -14 -33 3 -4 1 -8 -5 -8 -6 0 -17 -12 -26 -27 -9 -16
-24 -41 -35 -58 -48 -76 -100 -174 -100 -190 0 -7 -4 -15 -10 -17 -11 -3 -111
-243 -113 -270 -1 -10 -4 -18 -7 -18 -4 0 -7 -6 -7 -12 -1 -7 -12 -56 -26
-108 -14 -52 -28 -113 -31 -135 -4 -22 -9 -53 -12 -70 -2 -16 -6 -43 -9 -60
-2 -16 -6 -41 -9 -55 -7 -37 -18 -140 -20 -182 0 -21 -3 -38 -6 -38 -3 0 -6
-12 -6 -27 -1 -16 -4 -57 -7 -93 -18 -196 -26 -295 -32 -390 -3 -47 -8 -125
-11 -175 -7 -108 -11 -196 -19 -420 -3 -93 -7 -187 -9 -208 -2 -20 0 -40 5
-43 5 -3 5 -12 0 -22 -9 -17 -7 -1217 3 -1407 2 -55 6 -139 8 -187 1 -49 6
-88 11 -88 4 0 3 -9 -3 -20 -6 -11 -7 -20 -3 -20 4 0 8 -37 9 -83 0 -45 4
-118 8 -162 3 -44 9 -114 12 -155 3 -41 7 -95 10 -120 7 -63 16 -159 17 -197
1 -18 4 -33 7 -33 3 0 5 -10 6 -22 0 -13 4 -48 8 -78 4 -30 7 -62 8 -70 0 -8
5 -37 10 -65 5 -27 11 -66 14 -85 7 -51 11 -69 28 -124 8 -27 13 -53 10 -58
-3 -4 -1 -8 3 -8 5 0 9 -8 10 -17 2 -19 28 -104 43 -138 5 -11 18 -47 30 -80
27 -76 117 -264 138 -287 8 -10 12 -18 8 -18 -4 0 2 -13 13 -29 12 -16 21 -34
21 -40 0 -6 4 -11 9 -11 4 0 19 -20 32 -45 13 -25 27 -45 31 -45 5 0 8 -5 8
-11 0 -23 217 -278 309 -363 18 -17 48 -44 65 -61 17 -16 54 -48 81 -70 28
-22 51 -43 53 -47 2 -5 8 -8 13 -8 5 0 23 -13 41 -30 17 -17 37 -30 44 -30 7
0 14 -4 16 -8 3 -9 123 -92 133 -92 4 0 21 -11 38 -24 18 -14 43 -30 57 -36
14 -6 48 -24 75 -40 53 -31 84 -46 100 -50 6 -1 17 -7 25 -14 12 -10 154 -74
235 -106 61 -24 271 -99 280 -100 3 0 10 -3 17 -5 43 -15 254 -66 313 -75 39
-6 83 -13 98 -16 16 -2 54 -7 85 -10 31 -3 75 -8 97 -10 45 -5 116 -12 190
-19 60 -5 254 -18 275 -18 8 0 20 -4 27 -9 7 -5 14 -5 18 2 3 6 10 8 15 5 4
-2 61 -7 126 -10 66 -3 151 -7 189 -10 91 -6 347 -15 555 -20 91 -2 165 -5
165 -5 0 -6 598 -12 1175 -13 790 0 1220 5 1220 14 0 4 16 3 35 -1 19 -4 35
-5 35 -1 0 3 57 6 128 7 157 1 393 11 731 29 46 2 86 6 88 9 3 3 13 1 23 -4
10 -5 20 -6 24 -2 4 3 21 7 39 8 144 8 422 31 422 34 0 1 16 3 35 5 70 7 135
15 155 19 11 2 40 7 65 11 25 4 54 9 65 11 11 2 34 7 50 10 17 3 53 12 81 20
28 8 61 17 73 19 11 3 30 7 41 9 21 5 190 62 225 76 69 28 135 55 165 68 19 9
37 16 40 17 16 5 46 19 50 24 5 7 48 27 65 31 6 1 21 10 35 19 14 10 33 20 42
24 9 3 51 28 92 56 42 28 76 47 76 43 0 -4 4 -2 8 3 4 6 50 42 102 82 126 95
204 166 300 270 62 67 80 88 130 153 19 25 38 50 43 55 4 6 26 39 50 75 23 36
44 67 47 70 23 23 164 316 199 415 18 50 36 99 41 110 8 18 20 54 26 80 2 6 5
19 8 30 3 11 12 45 20 77 8 31 18 67 20 80 3 12 10 41 15 63 5 22 13 63 17 90
3 28 8 53 10 56 5 9 14 88 19 164 2 39 5 70 6 70 9 0 29 462 33 753 l3 222
-1416 0 -1416 0 -2 -32 c-1 -18 -4 -51 -7 -73 -2 -22 -7 -65 -11 -95 -3 -30
-8 -67 -11 -83 -7 -42 -16 -149 -15 -176 3 -63 -84 -301 -110 -301 -4 0 -10
-8 -13 -17 -9 -26 -103 -125 -159 -168 -103 -77 -257 -136 -397 -152 -52 -5
-85 -11 -85 -13 0 -1 -20 -3 -45 -5 -25 -1 -85 -6 -135 -9 -601 -43 -2176 -55
-2825 -20 -218 11 -269 14 -325 18 -93 7 -188 17 -210 21 -103 20 -139 28
-195 47 -36 11 -83 30 -105 41 -40 20 -134 92 -147 112 -3 5 -15 21 -27 34
-11 13 -26 36 -33 52 -7 16 -17 29 -21 29 -5 0 -6 4 -2 9 3 5 -1 16 -9 24 -8
8 -13 17 -10 20 3 3 -2 16 -10 29 -9 14 -13 27 -10 31 3 3 2 12 -2 19 -5 7
-10 18 -11 23 -11 43 -25 118 -29 155 -3 25 -7 63 -10 85 -3 22 -6 59 -7 82
-1 24 -4 43 -8 43 -3 0 -6 30 -8 68 -5 112 -6 127 -14 140 -5 7 -3 12 3 12 6
0 8 5 5 10 -8 13 -17 175 -19 317 -1 57 -3 103 -6 103 -8 0 -4 1003 5 1150 4
69 8 155 9 191 2 36 6 71 10 77 4 7 1 12 -6 12 -8 0 -9 3 -3 8 6 4 11 30 12
57 4 132 8 205 13 205 3 0 5 12 6 28 1 37 13 162 18 192 2 14 7 47 11 73 4 27
9 59 11 70 3 12 6 36 8 52 2 17 6 41 10 55 3 14 8 36 10 50 17 98 45 181 81
240 12 19 22 37 21 40 -1 5 82 87 117 116 14 12 58 38 67 39 3 1 25 11 50 23
102 48 229 72 405 76 50 1 97 6 104 11 10 6 12 4 6 -5 -6 -9 -4 -11 5 -5 14 8
161 13 631 19 163 2 302 6 308 10 6 4 11 4 11 -1 0 -7 52 -8 200 -3 14 0 57 1
95 1 89 0 81 0 205 -2 58 0 110 0 115 1 6 1 12 2 15 1 3 -1 196 -4 430 -7 408
-5 695 -11 695 -14 0 0 63 -3 140 -5 77 -2 172 -6 210 -9 39 -3 113 -8 165
-11 52 -4 109 -8 125 -10 144 -18 177 -26 275 -74 99 -48 191 -140 242 -242
44 -88 69 -155 62 -162 -3 -3 -1 -14 4 -24 15 -27 25 -141 26 -285 1 -71 3
-129 6 -129 3 -1 638 -2 1412 -3 959 -1 1409 2 1412 9 7 20 -6 511 -18 680 -3
33 -7 96 -10 140 -4 44 -9 105 -12 135 -4 30 -6 65 -5 77 0 12 -4 25 -9 28 -6
4 -8 11 -4 16 9 15 -48 260 -76 324 -5 11 -14 38 -21 60 -6 22 -15 44 -20 49
-5 6 -9 16 -9 23 0 11 -18 54 -81 188 -12 28 -22 53 -21 58 1 4 -2 7 -7 7 -5
0 -16 17 -25 38 -22 50 -49 96 -58 100 -5 2 -8 11 -8 21 0 9 -9 23 -20 31 -11
8 -20 19 -20 24 0 10 -96 155 -109 166 -4 3 -20 24 -37 47 -84 116 -267 304
-404 415 -70 56 -200 148 -211 148 -5 0 -9 4 -9 9 0 5 -8 11 -17 14 -18 6 -73
37 -83 47 -3 3 -27 16 -55 30 -27 14 -63 34 -80 45 -16 11 -32 19 -35 19 -3
-1 -30 10 -60 23 -30 14 -71 31 -90 38 -19 7 -44 16 -55 21 -11 4 -22 8 -25 9
-3 1 -12 4 -20 8 -51 19 -149 48 -240 70 -104 25 -137 32 -215 43 -22 3 -46 7
-54 10 -12 4 -117 15 -158 17 -7 0 -13 3 -13 6 0 3 -19 6 -42 6 -24 1 -74 4
-113 8 -110 12 -185 18 -255 22 -36 2 -65 4 -65 5 0 2 -84 7 -192 12 -46 2
-83 5 -83 8 0 3 -11 5 -25 5 -14 0 -25 -4 -25 -8 0 -5 -5 -5 -11 -2 -10 7
-110 14 -268 19 -48 1 -92 5 -98 9 -7 4 -14 3 -18 -3 -4 -6 -11 -8 -16 -5 -5
4 -82 8 -171 11 -180 6 -1945 14 -1950 9z"/>
<path d="M14496 28340 c-30 -5 -26 2 -153 -305 -25 -60 -49 -117 -53 -126 -5
-9 -25 -56 -45 -105 -21 -49 -42 -100 -48 -114 -6 -14 -11 -27 -12 -30 -4 -12
-26 -64 -46 -107 -12 -26 -22 -52 -24 -58 -1 -5 -8 -23 -15 -40 -7 -16 -13
-33 -12 -37 1 -5 -3 -8 -10 -8 -6 0 -8 -3 -5 -6 3 -4 1 -16 -5 -28 -7 -11 -13
-23 -13 -26 -1 -3 -11 -26 -23 -52 -12 -26 -22 -50 -22 -53 0 -4 -6 -21 -14
-38 -42 -92 -66 -148 -66 -152 0 -4 -82 -200 -106 -252 -8 -17 -14 -34 -14
-37 0 -5 -17 -44 -60 -141 -5 -11 -28 -65 -50 -120 -23 -55 -48 -114 -55 -130
-19 -42 -37 -90 -34 -90 2 0 -4 -13 -13 -30 -14 -25 -24 -49 -33 -75 -1 -3
-12 -27 -24 -55 -13 -27 -29 -68 -37 -89 -8 -22 -19 -45 -25 -53 -6 -7 -8 -13
-5 -13 4 0 0 -12 -8 -27 -8 -16 -33 -73 -56 -128 -45 -110 -55 -135 -75 -180
-44 -98 -73 -174 -68 -179 4 -3 1 -6 -5 -6 -7 0 -17 -20 -23 -45 -6 -25 -15
-45 -20 -45 -5 0 -9 -7 -9 -15 0 -14 -13 -47 -56 -140 -7 -16 -32 -75 -55
-130 -22 -55 -47 -113 -54 -130 -7 -16 -30 -70 -50 -120 -37 -88 -54 -129 -80
-190 -8 -16 -23 -55 -35 -85 -12 -30 -26 -61 -32 -67 -6 -7 -8 -13 -5 -13 3 0
-15 -46 -39 -102 -25 -57 -47 -111 -49 -122 -3 -10 -8 -23 -13 -30 -5 -6 -26
-54 -47 -106 -21 -52 -43 -100 -48 -107 -5 -7 -6 -17 -2 -23 3 -5 1 -10 -5
-10 -6 0 -9 -4 -6 -9 4 -5 3 -11 -1 -13 -5 -1 -23 -41 -42 -88 -19 -47 -38
-89 -43 -95 -4 -5 -8 -17 -8 -27 0 -10 -5 -18 -12 -18 -6 0 -9 -3 -5 -6 3 -4
-2 -23 -12 -43 -11 -20 -20 -40 -21 -46 -2 -5 -10 -26 -18 -45 -8 -19 -15 -41
-15 -47 0 -7 -4 -13 -9 -13 -4 0 -8 -4 -8 -9 0 -5 -8 -26 -17 -47 -9 -22 -17
-44 -19 -50 -1 -6 -13 -35 -26 -65 -14 -30 -42 -94 -62 -144 -21 -49 -44 -104
-51 -120 -13 -29 -36 -85 -40 -95 -5 -14 -96 -233 -111 -265 -30 -66 -86 -201
-88 -210 -1 -5 -8 -20 -14 -32 -7 -13 -10 -23 -6 -23 3 0 2 -6 -4 -12 -5 -7
-33 -69 -62 -138 -29 -69 -61 -144 -71 -167 -10 -23 -19 -44 -19 -47 0 -2 -10
-26 -22 -53 -12 -26 -21 -51 -20 -55 1 -5 -2 -8 -6 -8 -5 0 -9 -6 -9 -12 0 -7
-9 -33 -20 -58 -20 -45 -35 -81 -38 -90 -1 -3 -9 -23 -19 -45 -10 -22 -27 -62
-38 -90 -11 -27 -26 -66 -35 -85 -8 -19 -22 -50 -29 -67 -8 -18 -20 -48 -28
-65 -24 -55 -80 -193 -81 -198 0 -3 -3 -9 -7 -15 -3 -5 -22 -48 -41 -95 -19
-47 -43 -103 -52 -125 -10 -22 -17 -41 -16 -43 1 -1 -6 -17 -16 -35 -9 -17
-18 -36 -19 -42 -2 -8 -79 -193 -137 -325 -5 -14 -11 -28 -11 -31 -1 -6 -36
-86 -67 -155 -11 -23 -19 -49 -19 -58 0 -9 -4 -16 -10 -16 -5 0 -10 -7 -10
-15 0 -8 -4 -23 -10 -33 -5 -9 -16 -34 -25 -54 -8 -21 -21 -53 -29 -70 -8 -18
-24 -57 -36 -87 -11 -30 -30 -74 -41 -97 -10 -24 -19 -45 -19 -48 0 -3 -11
-29 -23 -58 -13 -29 -30 -69 -37 -88 -7 -19 -17 -40 -23 -47 -5 -7 -6 -16 -3
-21 4 -7 2885 -10 2919 -4 8 2 26 44 32 75 2 10 11 31 19 47 8 17 17 43 21 60
4 16 10 30 14 30 4 0 7 8 8 18 1 9 43 125 93 257 51 132 93 245 94 250 1 6 10
26 18 46 9 20 19 50 23 68 3 17 11 31 17 31 6 0 9 2 6 6 -3 3 12 51 34 107 22
56 41 109 43 117 2 8 4 17 5 20 1 3 2 8 1 13 0 4 4 7 11 7 6 0 9 2 6 6 -3 3
14 54 37 115 24 60 41 109 38 109 -3 0 1 7 8 16 7 9 14 24 16 35 1 10 15 48
29 84 l26 66 474 -5 c260 -2 477 -7 482 -9 4 -3 14 -2 22 3 7 4 24 4 36 0 14
-6 26 -5 29 1 4 5 11 6 17 3 16 -10 179 -11 185 -2 2 5 10 5 16 1 7 -4 100 -8
207 -9 839 -9 1223 -14 1273 -17 31 -1 57 1 57 6 0 4 5 5 11 1 6 -4 190 -8
408 -10 218 -2 402 -6 409 -9 6 -2 12 1 12 8 0 7 3 8 8 2 4 -6 106 -10 269
-10 145 0 263 -4 263 -9 0 -5 6 -3 14 3 20 16 36 -10 76 -119 17 -47 35 -94
40 -105 5 -11 21 -51 35 -90 25 -65 68 -175 190 -490 26 -66 48 -124 49 -130
1 -5 12 -32 24 -59 12 -27 22 -51 22 -54 0 -3 16 -46 36 -96 20 -50 37 -95 39
-101 1 -5 8 -23 15 -40 7 -16 14 -33 15 -37 2 -5 4 -10 5 -13 1 -3 3 -8 5 -12
1 -5 6 -19 12 -33 6 -14 18 -42 26 -62 9 -21 14 -38 11 -38 -3 0 2 -13 12 -28
l16 -29 1463 0 1462 1 -16 40 c-8 23 -19 43 -23 44 -5 2 -8 10 -8 18 0 8 -9
33 -19 57 -11 23 -32 71 -46 107 -15 36 -37 88 -49 115 -12 28 -28 66 -36 85
-7 19 -17 39 -22 45 -4 5 -8 17 -8 27 0 10 -5 18 -10 18 -6 0 -9 3 -8 8 1 8
-6 29 -27 77 -17 39 -38 89 -40 95 0 3 -8 21 -17 40 -18 40 -45 102 -63 145
-7 17 -27 64 -45 105 -18 41 -33 80 -34 85 -1 6 -17 42 -35 80 -18 39 -34 77
-36 86 -2 9 -8 25 -13 35 -21 40 -53 114 -103 234 -48 117 -72 174 -104 245
-7 17 -22 53 -33 80 -11 28 -29 70 -41 95 -11 25 -20 48 -20 53 0 4 -8 22 -18
40 -9 17 -17 34 -18 37 0 4 -30 74 -70 165 -7 17 -21 50 -31 75 -9 25 -21 49
-26 55 -4 5 -8 17 -8 27 0 10 -5 18 -11 18 -6 0 -9 7 -5 15 3 8 0 15 -6 15 -6
0 -8 3 -5 7 4 3 3 11 -2 17 -5 6 -25 52 -46 101 -20 50 -45 108 -55 130 -10
22 -30 69 -45 105 -14 36 -32 79 -40 95 -7 17 -32 75 -55 130 -23 55 -50 117
-61 138 -10 20 -16 37 -12 37 4 0 2 5 -5 12 -7 7 -12 20 -12 30 0 10 -5 18
-12 18 -6 0 -9 3 -5 6 5 5 -12 46 -44 106 -5 10 -9 22 -9 27 0 5 -13 39 -30
74 -16 36 -30 67 -30 70 0 2 -12 31 -27 63 -15 33 -28 61 -29 64 -1 7 -45 112
-144 345 -5 11 -21 47 -35 80 -15 33 -40 93 -56 133 -16 41 -38 91 -49 113
-11 21 -17 39 -13 39 5 0 2 4 -5 9 -7 4 -14 18 -15 29 -1 12 -5 22 -9 22 -4 0
-8 6 -8 13 0 8 -6 27 -14 43 -20 40 -88 197 -90 209 -1 6 -14 36 -29 68 -15
32 -27 64 -27 72 0 8 -4 15 -10 15 -5 0 -10 4 -10 9 0 5 -5 22 -12 38 -6 15
-12 30 -13 33 -1 3 -9 22 -18 44 -9 21 -17 40 -17 42 0 2 -11 27 -24 56 -13
29 -49 114 -81 188 -31 74 -63 149 -70 165 -7 17 -59 138 -115 270 -56 132
-111 260 -122 285 -11 25 -21 50 -22 55 -2 6 -11 28 -20 50 -10 22 -24 54 -31
70 -7 17 -27 60 -43 98 -17 37 -29 67 -26 67 3 0 -2 12 -10 28 -23 40 -104
232 -103 242 1 3 -6 19 -15 35 -17 32 -52 107 -53 115 0 3 -11 27 -23 54 -12
27 -22 50 -22 52 0 2 -9 26 -21 52 -12 26 -24 56 -29 67 -4 11 -18 43 -30 70
-12 28 -26 59 -31 70 -4 11 -29 70 -55 130 -26 61 -47 116 -47 123 0 6 -4 12
-9 12 -4 0 -7 3 -6 8 0 4 -11 33 -25 65 -15 32 -27 60 -27 62 0 2 -14 34 -30
70 -17 36 -36 84 -43 105 -6 22 -15 40 -19 40 -5 0 -8 9 -8 20 0 11 -5 20 -12
20 -6 0 -8 3 -5 6 3 4 1 16 -5 28 -7 11 -13 23 -13 26 -2 7 -23 60 -34 85 -5
11 -16 37 -25 58 -9 20 -24 54 -33 75 -10 20 -18 39 -19 42 0 3 -8 23 -17 45
-10 22 -32 74 -49 115 -17 41 -43 102 -58 135 -15 33 -33 76 -40 95 -7 19 -17
39 -22 44 -4 6 -8 18 -8 28 0 10 -5 18 -11 18 -5 0 -8 4 -5 8 21 35 37 34
-1971 36 -1077 0 -1972 -1 -1987 -4z m2214 -1895 c0 -5 16 -47 34 -92 19 -46
33 -83 31 -83 -2 0 2 -12 10 -27 8 -15 12 -30 9 -35 -3 -4 0 -8 5 -8 6 0 10
-3 9 -7 -1 -5 4 -21 11 -38 39 -98 65 -171 63 -177 -1 -5 2 -8 8 -8 5 0 7 -6
4 -14 -3 -8 0 -17 5 -21 6 -3 9 -10 6 -15 -3 -4 2 -13 10 -20 8 -7 15 -20 15
-29 0 -9 13 -50 29 -91 39 -100 44 -114 45 -120 1 -3 12 -32 25 -65 42 -108
46 -120 43 -127 -1 -5 2 -8 6 -8 4 0 14 -21 21 -47 8 -27 18 -55 22 -63 4 -8
27 -67 50 -130 24 -63 46 -119 51 -124 4 -6 8 -18 8 -28 0 -10 4 -26 9 -36 12
-22 71 -175 71 -183 0 -4 8 -24 17 -45 9 -22 18 -43 19 -49 3 -13 82 -223 94
-250 5 -11 22 -56 38 -100 16 -44 33 -89 37 -100 4 -11 9 -24 11 -30 4 -13
103 -273 114 -300 22 -53 72 -185 74 -197 2 -7 9 -26 16 -43 7 -16 14 -34 16
-40 1 -5 12 -35 24 -65 12 -30 26 -68 32 -85 5 -16 14 -41 20 -55 19 -45 26
-63 68 -180 23 -63 46 -124 51 -135 4 -11 19 -48 33 -82 l25 -63 -1516 0
c-1439 0 -1515 1 -1508 18 16 41 111 293 180 477 12 33 25 67 28 75 19 48 119
317 121 325 2 6 8 21 13 35 6 14 25 62 42 108 68 180 95 251 133 349 22 56 41
107 42 115 2 7 8 27 15 43 7 17 28 73 47 125 20 52 40 104 44 115 5 11 30 76
55 145 25 69 57 152 69 185 13 33 29 74 35 90 6 17 16 44 22 60 7 17 13 32 14
35 1 3 5 14 9 25 110 288 136 358 136 370 0 8 4 15 8 15 5 0 9 6 9 13 1 6 28
84 62 172 34 88 63 165 65 170 5 16 17 47 56 150 12 31 67 178 72 195 5 13 40
15 232 15 148 0 226 -3 226 -10z"/>
<path d="M33173 28292 l-32 -3 2 -4292 2 -4292 1355 -1 c745 0 1360 1 1365 3
7 2 9 1438 8 4286 -1 2355 -2 4287 -2 4292 -1 9 -2607 16 -2698 7z"/>
</g>
</svg>
